<svg width="45" height="42" viewBox="0 0 45 42" fill="none" xmlns="http://www.w3.org/2000/svg">
<path fill-rule="evenodd" clip-rule="evenodd" d="M42.8906 37.9718C42.8906 26.7104 33.7614 17.5812 22.5 17.5812C11.2386 17.5812 2.10938 26.7104 2.10938 37.9718H42.8906Z" fill="#3AB401"/>
<path fill-rule="evenodd" clip-rule="evenodd" d="M6.7597 30.1382C9.63916 24.3632 15.6054 20.3937 22.5 20.3937C22.8883 20.3937 23.2031 20.7085 23.2031 21.0968C23.2031 21.4852 22.8883 21.8 22.5 21.8C16.1589 21.8 10.6689 25.4494 8.01819 30.7657C7.84492 31.1133 7.42273 31.2545 7.0752 31.0812C6.72768 30.908 6.58643 30.4858 6.7597 30.1382Z" fill="white"/>
<path d="M43.2422 37.9719H1.75781C0.787 37.9719 0 38.7589 0 39.7297C0 40.7005 0.787 41.4875 1.75781 41.4875H43.2422C44.213 41.4875 45 40.7005 45 39.7297C45 38.7589 44.213 37.9719 43.2422 37.9719Z" fill="#3E7340"/>
<path fill-rule="evenodd" clip-rule="evenodd" d="M19.6876 14.0656H25.3126V16.175H19.6876V14.0656Z" fill="#3E7340"/>
<path fill-rule="evenodd" clip-rule="evenodd" d="M32.0254 0C29.2743 0 27.0441 1.66079 27.0441 5.03166C27.0441 8.40252 34.5649 15.9829 35.8347 15.9829C37.1044 15.9829 44.6253 8.40252 44.6253 5.03166C44.6253 1.66079 42.395 0 39.6439 0C38.1158 0 36.7484 0.695024 35.8347 1.78919C34.9209 0.695024 33.5535 0 32.0254 0Z" fill="#3AB401"/>
<path fill-rule="evenodd" clip-rule="evenodd" d="M29.4656 3.14315C30.1452 2.17225 31.2937 1.60181 32.4461 1.60181C32.8875 1.60181 33.2453 1.9596 33.2453 2.40095C33.2453 2.84231 32.8875 3.2001 32.4461 3.2001C31.798 3.2001 31.1457 3.53001 30.7749 4.0597C30.4306 4.55168 30.2808 5.28674 30.76 6.24521C30.9574 6.63997 30.7974 7.12 30.4026 7.31738C30.0079 7.51476 29.5278 7.35475 29.3305 6.95999C28.6092 5.51751 28.7596 4.15176 29.4656 3.14315Z" fill="white"/>
</svg>
