<svg width="216" height="172" viewBox="0 0 216 172" fill="none" xmlns="http://www.w3.org/2000/svg">
<g filter="url(#filter0_d_4_107)">
<path d="M23.4302 13H196.57L185 148H9.5L23.4302 13Z" fill="#3E7340"/>
<path d="M27 0H205L189.978 144H12L27 0Z" fill="#FAA307"/>
<path d="M30.1833 136.545L36.1675 108.435H45.6584C47.9326 108.435 49.6224 108.943 50.7278 109.96C51.8331 110.963 52.3858 112.304 52.3858 113.981C52.3858 114.985 52.227 116.001 51.9094 117.03C51.5917 118.059 51.1407 119.012 50.5562 119.889C49.9718 120.766 49.273 121.49 48.4599 122.061C47.6594 122.633 46.7764 122.97 45.8108 123.072C46.3953 123.122 46.9352 123.268 47.4307 123.51C47.939 123.739 48.3455 124.101 48.6505 124.596C48.9681 125.079 49.1269 125.721 49.1269 126.521C49.1269 126.864 49.0697 127.341 48.9554 127.95C48.841 128.56 48.7013 129.24 48.5361 129.99C48.3709 130.726 48.2058 131.47 48.0406 132.219C47.8754 132.956 47.7357 133.636 47.6213 134.259C47.507 134.881 47.4498 135.37 47.4498 135.726C47.4498 135.917 47.4562 136.088 47.4689 136.241C47.4943 136.38 47.526 136.482 47.5642 136.545H44.2862C44.2227 136.38 44.1909 136.126 44.1909 135.783C44.1909 135.453 44.2417 135.002 44.3434 134.43C44.4577 133.846 44.5911 133.217 44.7436 132.543C44.9088 131.857 45.0676 131.178 45.22 130.504C45.3725 129.818 45.4995 129.189 45.6012 128.617C45.7155 128.046 45.7727 127.601 45.7727 127.283C45.7727 126.318 45.4297 125.619 44.7436 125.187C44.0575 124.755 43.111 124.539 41.904 124.539H34.4904L36.1675 123.415L33.366 136.545H30.1833ZM36.3009 122.767L35.0241 121.68H42.5329C43.7272 121.68 44.8071 121.375 45.7727 120.766C46.7383 120.156 47.507 119.349 48.0787 118.345C48.6505 117.341 48.9363 116.242 48.9363 115.048C48.9363 113.879 48.5996 112.965 47.9263 112.304C47.2529 111.63 46.1602 111.294 44.6483 111.294H37.3491L39.1215 109.464L36.3009 122.767Z" fill="#3E7340"/>
<path d="M62.4951 111.294L64.3437 109.445L61.6566 122.138L61.0848 121.013H71.8716L71.2808 123.872H60.494L61.5232 122.748L58.8169 135.535L57.7306 133.687H71.2999L70.69 136.545H55.3293L61.3135 108.435H76.6742L76.0643 111.294H62.4951Z" fill="#3E7340"/>
<path d="M99.03 126.769C98.7886 127.9 98.3439 129.062 97.6959 130.256C97.0607 131.438 96.2221 132.537 95.1803 133.553C94.1512 134.557 92.9442 135.37 91.5593 135.993C90.1744 136.615 88.618 136.927 86.8901 136.927C84.8954 136.927 83.2564 136.488 81.9732 135.612C80.7027 134.735 79.7625 133.534 79.1526 132.01C78.5555 130.472 78.2569 128.725 78.2569 126.769C78.2569 124.393 78.5809 122.093 79.2288 119.87C79.8895 117.646 80.8361 115.652 82.0685 113.886C83.3136 112.107 84.8128 110.697 86.5661 109.655C88.3322 108.613 90.3205 108.092 92.5313 108.092C94.5895 108.092 96.2412 108.511 97.4863 109.35C98.7441 110.176 99.6526 111.23 100.212 112.513C100.771 113.797 101.05 115.118 101.05 116.478C101.05 116.821 101.031 117.138 100.993 117.43C100.955 117.723 100.904 117.983 100.84 118.212H97.5816C97.6197 118.021 97.6578 117.767 97.6959 117.449C97.7468 117.119 97.7722 116.814 97.7722 116.535C97.7722 115.518 97.5689 114.597 97.1623 113.771C96.7685 112.945 96.1586 112.285 95.3328 111.789C94.5069 111.294 93.4524 111.046 92.1692 111.046C90.4539 111.046 88.9357 111.503 87.6143 112.418C86.293 113.333 85.1813 114.553 84.2792 116.077C83.3771 117.602 82.6974 119.298 82.24 121.166C81.7826 123.021 81.5539 124.895 81.5539 126.788C81.5539 129.126 82.0177 130.911 82.9451 132.143C83.8726 133.376 85.2956 133.992 87.2141 133.992C88.3449 133.992 89.3867 133.788 90.3396 133.382C91.3052 132.963 92.1564 132.404 92.8934 131.705C93.643 131.006 94.2592 130.231 94.742 129.38C95.2375 128.516 95.5805 127.645 95.7711 126.769H99.03Z" fill="#3E7340"/>
<path d="M103.799 136.545L109.764 108.435H112.985L107.039 136.545H103.799Z" fill="#3E7340"/>
<path d="M118.318 136.545H115.059L121.044 108.435H128.743C130.662 108.435 132.212 108.765 133.393 109.426C134.575 110.087 135.439 110.976 135.985 112.094C136.544 113.2 136.824 114.432 136.824 115.791C136.824 117.469 136.544 118.98 135.985 120.327C135.426 121.661 134.632 122.811 133.603 123.777C132.574 124.73 131.348 125.46 129.925 125.968C128.514 126.477 126.952 126.731 125.236 126.731H120.415L118.318 136.545ZM120.662 125.53L119.557 123.872H125.255C126.945 123.872 128.413 123.535 129.658 122.862C130.903 122.189 131.869 121.248 132.555 120.041C133.241 118.834 133.584 117.424 133.584 115.81C133.584 114.845 133.387 114.032 132.993 113.371C132.612 112.698 132.002 112.183 131.163 111.827C130.338 111.472 129.258 111.294 127.924 111.294H122.225L124.074 109.445L120.662 125.53Z" fill="#3E7340"/>
<path d="M146.627 111.294L148.475 109.445L145.788 122.138L145.217 121.013H156.003L155.412 123.872H144.626L145.655 122.748L142.949 135.535L141.862 133.687H155.432L154.822 136.545H139.461L145.445 108.435H160.806L160.196 111.294H146.627Z" fill="#3E7340"/>
<path d="M170.885 136.927C169.272 136.927 167.868 136.698 166.674 136.241C165.479 135.77 164.558 135.084 163.91 134.182C163.262 133.268 162.938 132.137 162.938 130.79C162.938 130.167 162.983 129.596 163.072 129.075C163.173 128.554 163.307 127.95 163.472 127.264H166.712C166.547 127.925 166.426 128.484 166.35 128.941C166.286 129.399 166.254 129.85 166.254 130.294C166.254 131.641 166.674 132.594 167.512 133.153C168.363 133.712 169.596 133.992 171.209 133.992C172.582 133.992 173.808 133.807 174.888 133.439C175.967 133.058 176.819 132.48 177.441 131.705C178.064 130.917 178.375 129.907 178.375 128.675C178.375 127.468 177.88 126.477 176.889 125.702C175.91 124.927 174.576 124.266 172.886 123.72C171.603 123.288 170.447 122.754 169.418 122.119C168.402 121.471 167.595 120.689 166.998 119.775C166.413 118.86 166.121 117.799 166.121 116.592C166.121 115.232 166.381 114.025 166.902 112.971C167.436 111.916 168.173 111.027 169.113 110.303C170.053 109.579 171.146 109.032 172.391 108.664C173.636 108.283 174.983 108.092 176.431 108.092C178.045 108.092 179.442 108.321 180.624 108.778C181.818 109.223 182.739 109.883 183.387 110.76C184.035 111.637 184.359 112.723 184.359 114.019C184.359 114.578 184.315 115.137 184.226 115.696C184.137 116.255 184.023 116.84 183.883 117.449H180.624C180.764 116.865 180.865 116.344 180.929 115.887C181.005 115.417 181.043 114.953 181.043 114.495C181.043 113.2 180.618 112.297 179.766 111.789C178.915 111.281 177.689 111.027 176.088 111.027C174.792 111.027 173.636 111.198 172.62 111.542C171.603 111.885 170.803 112.425 170.218 113.161C169.634 113.886 169.342 114.832 169.342 116.001C169.342 117.335 169.863 118.383 170.904 119.146C171.946 119.895 173.338 120.575 175.078 121.185C176.438 121.655 177.606 122.208 178.585 122.843C179.563 123.478 180.313 124.228 180.834 125.092C181.367 125.956 181.634 126.966 181.634 128.122C181.634 129.99 181.158 131.584 180.205 132.905C179.265 134.214 177.981 135.211 176.355 135.898C174.741 136.584 172.918 136.927 170.885 136.927Z" fill="#3E7340"/>
<path fill-rule="evenodd" clip-rule="evenodd" d="M150.366 88.8884C150.366 64.899 130.919 45.4518 106.93 45.4518C82.9406 45.4518 63.4934 64.899 63.4934 88.8884H150.366Z" fill="#3AB401"/>
<path fill-rule="evenodd" clip-rule="evenodd" d="M73.3997 72.2011C79.5336 59.899 92.2429 51.4431 106.93 51.4431C107.757 51.4431 108.428 52.1137 108.428 52.9409C108.428 53.7681 107.757 54.4387 106.93 54.4387C93.422 54.4387 81.7272 62.2128 76.0805 73.5378C75.7114 74.2781 74.8121 74.579 74.0718 74.2099C73.3315 73.8408 73.0306 72.9414 73.3997 72.2011Z" fill="white"/>
<path d="M151.115 88.8884H62.7445C60.6765 88.8884 59 90.5648 59 92.6329C59 94.7009 60.6765 96.3774 62.7445 96.3774H151.115C153.183 96.3774 154.86 94.7009 154.86 92.6329C154.86 90.5648 153.183 88.8884 151.115 88.8884Z" fill="#3E7340"/>
<path fill-rule="evenodd" clip-rule="evenodd" d="M100.939 37.9627H112.921V42.4562H100.939V37.9627Z" fill="#3E7340"/>
<path fill-rule="evenodd" clip-rule="evenodd" d="M127.221 8C121.361 8 116.61 11.5378 116.61 18.7185C116.61 25.8992 132.631 42.0471 135.336 42.0471C138.041 42.0471 154.062 25.8992 154.062 18.7185C154.062 11.5378 149.311 8 143.45 8C140.195 8 137.282 9.48055 135.336 11.8114C133.389 9.48055 130.476 8 127.221 8Z" fill="#3AB401"/>
<path fill-rule="evenodd" clip-rule="evenodd" d="M121.768 14.6956C123.216 12.6274 125.662 11.4122 128.117 11.4122C129.058 11.4122 129.82 12.1744 129.82 13.1146C129.82 14.0547 129.058 14.8169 128.117 14.8169C126.737 14.8169 125.347 15.5197 124.557 16.6481C123.824 17.6961 123.505 19.2619 124.526 21.3037C124.946 22.1446 124.605 23.1672 123.764 23.5876C122.923 24.0081 121.901 23.6672 121.48 22.8263C119.944 19.7535 120.264 16.8442 121.768 14.6956Z" fill="white"/>
</g>
<defs>
<filter id="filter0_d_4_107" x="0.0714284" y="0" width="215.929" height="171.571" filterUnits="userSpaceOnUse" color-interpolation-filters="sRGB">
<feFlood flood-opacity="0" result="BackgroundImageFix"/>
<feColorMatrix in="SourceAlpha" type="matrix" values="0 0 0 0 0 0 0 0 0 0 0 0 0 0 0 0 0 0 127 0" result="hardAlpha"/>
<feOffset dx="0.785714" dy="13.3571"/>
<feGaussianBlur stdDeviation="5.10714"/>
<feComposite in2="hardAlpha" operator="out"/>
<feColorMatrix type="matrix" values="0 0 0 0 0.128867 0 0 0 0 0.0722222 0 0 0 0 0.216667 0 0 0 0.2 0"/>
<feBlend mode="normal" in2="BackgroundImageFix" result="effect1_dropShadow_4_107"/>
<feBlend mode="normal" in="SourceGraphic" in2="effect1_dropShadow_4_107" result="shape"/>
</filter>
</defs>
</svg>
